<?xml version="1.0"?>
<svg xmlns="http://www.w3.org/2000/svg" xmlns:xlink="http://www.w3.org/1999/xlink" xmlns:svgjs="http://svgjs.com/svgjs" version="1.1" width="512" height="512" x="0" y="0" viewBox="0 0 512.52 512.52" style="enable-background:new 0 0 512 512" xml:space="preserve" class=""><g><g xmlns="http://www.w3.org/2000/svg"><path d="m150.1 293.665c37.243 0 67.543-30.299 67.543-67.542s-30.3-67.542-67.543-67.542-67.542 30.299-67.542 67.542 30.298 67.542 67.542 67.542zm0-105.085c20.701 0 37.543 16.841 37.543 37.542s-16.842 37.542-37.543 37.542-37.542-16.841-37.542-37.542 16.84-37.542 37.542-37.542z" fill="#ea5b22" data-original="#000000" style="" class=""/><path d="m260.805 376.531c0-45.691-37.173-82.864-82.864-82.864h-55.682c-45.691 0-82.864 37.172-82.864 82.864v91.893h-39.395v30h512v-30h-251.195zm-191.41 0c0-29.149 23.715-52.864 52.864-52.864h12.841v104.298h30v-104.298h12.841c29.149 0 52.864 23.715 52.864 52.864v91.893h-161.41z" fill="#ea5b22" data-original="#000000" style="" class=""/><path d="m260.309 53.938c41.777-14.97 86.887-12.776 127.016 6.18 40.129 18.957 70.474 52.405 85.444 94.184 26.607 74.252-3.067 155.218-66.869 196.024l15.855-39.484-27.84-11.179-36.474 90.832 92.857 28.108 8.691-28.713-40.278-12.192c77.631-47.454 114.171-144.566 82.298-233.516-17.675-49.323-53.498-88.811-100.872-111.189s-100.629-24.97-149.95-7.295c-31.008 11.111-58.874 29.941-80.586 54.454l22.457 19.892c18.379-20.75 41.978-36.692 68.251-46.106z" fill="#ea5b22" data-original="#000000" style="" class=""/><path d="m240.566 244.645v12.264h70.128v-21.371h-35.612l24.794-32.073c6.036-7.994 8.97-16.046 8.97-24.618 0-9.072-2.522-16.543-7.497-22.205-6.043-6.882-14.577-10.372-25.364-10.372-8.882 0-16.621 2.979-23.051 8.901-6.289 5.949-9.73 13.339-10.228 21.965l-.252 4.378 21.631 4.121.53-5.453c.764-7.853 5.014-12.541 11.369-12.541 5.014 0 7.017 1.722 8.055 2.979 1.762 2.176 2.582 4.79 2.582 8.226 0 4.65-1.053 8.202-7.044 15.828z" fill="#ea5b22" data-original="#000000" style="" class=""/><path d="m359.363 147.408-44.178 77.015v11.307h43.211v21.18h22.225v-21.18h12.367v-21.371h-12.367v-66.951zm-.967 66.951h-13.472l13.472-24.039z" fill="#ea5b22" data-original="#000000" style="" class=""/></g></g></svg>
