<?xml version="1.0"?>
<svg xmlns="http://www.w3.org/2000/svg" xmlns:xlink="http://www.w3.org/1999/xlink" xmlns:svgjs="http://svgjs.com/svgjs" version="1.1" width="512" height="512" x="0" y="0" viewBox="0 0 74 74" style="enable-background:new 0 0 512 512" xml:space="preserve" class=""><g><path xmlns="http://www.w3.org/2000/svg" d="m61.86 57.96h-39.36a1 1 0 0 1 -1-1v-53.96a1 1 0 0 1 1-1h39.36a1 1 0 0 1 1 1v53.96a1 1 0 0 1 -1 1zm-38.36-2h37.36v-51.96h-37.36z" fill="#ea5b22" data-original="#000000" style="" class=""/><path xmlns="http://www.w3.org/2000/svg" d="m12.14 64.98a1 1 0 0 1 -1-1v-53.98a8.009 8.009 0 0 1 8-8h3.36a1 1 0 0 1 0 2h-3.36a6.007 6.007 0 0 0 -6 6v53.98a1 1 0 0 1 -1 1z" fill="#ea5b22" data-original="#000000" style="" class=""/><path xmlns="http://www.w3.org/2000/svg" d="m61.86 72h-42.71a8.02 8.02 0 0 1 0-16.04h42.71a1 1 0 0 1 1 1v14.04a1 1 0 0 1 -1 1zm-42.71-14.04a6.02 6.02 0 0 0 0 12.04h41.71v-12.04z" fill="#ea5b22" data-original="#000000" style="" class=""/><path xmlns="http://www.w3.org/2000/svg" d="m53 16.25h-21.64a1 1 0 0 1 0-2h21.64a1 1 0 0 1 0 2z" fill="#ea5b22" data-original="#000000" style="" class=""/><path xmlns="http://www.w3.org/2000/svg" d="m53 24.413h-21.64a1 1 0 0 1 0-2h21.64a1 1 0 0 1 0 2z" fill="#ea5b22" data-original="#000000" style="" class=""/></g></svg>
