<?xml version="1.0"?>
<svg xmlns="http://www.w3.org/2000/svg" xmlns:xlink="http://www.w3.org/1999/xlink" xmlns:svgjs="http://svgjs.com/svgjs" version="1.1" width="512" height="512" x="0" y="0" viewBox="0 0 187.5 187.5" style="enable-background:new 0 0 512 512" xml:space="preserve"><g>
<path xmlns="http://www.w3.org/2000/svg" d="M158,25.25h-5.5V10h5.5c2.761,0,5-2.239,5-5s-2.239-5-5-5H29.5c-2.761,0-5,2.239-5,5v25.25v0.25v152c0,2.761,2.239,5,5,5  H158c2.761,0,5-2.239,5-5V30.25C163,27.489,160.761,25.25,158,25.25z M142.417,112.5c0,2.761-2.239,5-5,5H50.75  c-2.761,0-5-2.239-5-5V62.667c0-2.761,2.239-5,5-5h86.667c2.761,0,5,2.239,5,5V112.5z M142.5,25.25h-108V10h108V25.25z M134.25,73  c0,2.761-2.239,5-5,5h-71c-2.761,0-5-2.239-5-5s2.239-5,5-5h71C132.011,68,134.25,70.239,134.25,73z M134.25,94c0,2.761-2.239,5-5,5  h-71c-2.761,0-5-2.239-5-5s2.239-5,5-5h71C132.011,89,134.25,91.239,134.25,94z" fill="#ffffff" data-original="#000000" style=""/>
<g xmlns="http://www.w3.org/2000/svg">
</g>
<g xmlns="http://www.w3.org/2000/svg">
</g>
<g xmlns="http://www.w3.org/2000/svg">
</g>
<g xmlns="http://www.w3.org/2000/svg">
</g>
<g xmlns="http://www.w3.org/2000/svg">
</g>
<g xmlns="http://www.w3.org/2000/svg">
</g>
<g xmlns="http://www.w3.org/2000/svg">
</g>
<g xmlns="http://www.w3.org/2000/svg">
</g>
<g xmlns="http://www.w3.org/2000/svg">
</g>
<g xmlns="http://www.w3.org/2000/svg">
</g>
<g xmlns="http://www.w3.org/2000/svg">
</g>
<g xmlns="http://www.w3.org/2000/svg">
</g>
<g xmlns="http://www.w3.org/2000/svg">
</g>
<g xmlns="http://www.w3.org/2000/svg">
</g>
<g xmlns="http://www.w3.org/2000/svg">
</g>
</g></svg>
