<?xml version="1.0"?>
<svg xmlns="http://www.w3.org/2000/svg" xmlns:xlink="http://www.w3.org/1999/xlink" xmlns:svgjs="http://svgjs.com/svgjs" version="1.1" width="512" height="512" x="0" y="0" viewBox="0 0 75 75" style="enable-background:new 0 0 512 512" xml:space="preserve" class=""><g><path xmlns="http://www.w3.org/2000/svg" d="m37.5 31.838a6.7 6.7 0 1 1 6.7-6.7 6.708 6.708 0 0 1 -6.7 6.7zm0-11.9a5.2 5.2 0 1 0 5.2 5.2 5.206 5.206 0 0 0 -5.2-5.2z" fill="#ea5b22" data-original="#000000" style="" class=""/><path xmlns="http://www.w3.org/2000/svg" d="m37.5 28.754a3.617 3.617 0 1 1 3.616-3.616 3.62 3.62 0 0 1 -3.616 3.616zm0-5.733a2.117 2.117 0 1 0 2.116 2.117 2.119 2.119 0 0 0 -2.116-2.117z" fill="#ea5b22" data-original="#000000" style="" class=""/><path xmlns="http://www.w3.org/2000/svg" d="m39.731 20.369a.75.75 0 0 1 -.75-.75v-3.888a1.481 1.481 0 1 0 -2.962 0v3.888a.75.75 0 0 1 -1.5 0v-3.888a2.981 2.981 0 0 1 5.962 0v3.888a.75.75 0 0 1 -.75.75z" fill="#ea5b22" data-original="#000000" style="" class=""/><path xmlns="http://www.w3.org/2000/svg" d="m49.418 62.25a.745.745 0 0 1 -.491-.184l-4.338-3.761a.745.745 0 0 1 -.23-.362l-7.58-26.65a.75.75 0 1 1 1.442-.41l7.519 26.435 3.178 2.756.771-4.179-7.8-27.288a.75.75 0 0 1 1.442-.412l7.849 27.456a.761.761 0 0 1 .016.342l-1.04 5.643a.753.753 0 0 1 -.489.572.766.766 0 0 1 -.249.042z" fill="#ea5b22" data-original="#000000" style="" class=""/><path xmlns="http://www.w3.org/2000/svg" d="m25.582 62.25a.766.766 0 0 1 -.249-.042.753.753 0 0 1 -.489-.572l-1.044-5.643a.761.761 0 0 1 .016-.342l7.855-27.451a.75.75 0 0 1 1.442.412l-7.802 27.288.771 4.179 3.178-2.756 7.519-26.435a.75.75 0 1 1 1.442.41l-7.58 26.65a.745.745 0 0 1 -.23.362l-4.338 3.761a.745.745 0 0 1 -.491.179z" fill="#ea5b22" data-original="#000000" style="" class=""/><path xmlns="http://www.w3.org/2000/svg" d="m37.5 44.276c-5.6 0-10.782-2.3-13.188-5.866a.75.75 0 0 1 1.243-.84c2.135 3.163 6.824 5.206 11.945 5.206s9.81-2.043 11.945-5.206a.75.75 0 0 1 1.243.84c-2.406 3.564-7.583 5.866-13.188 5.866z" fill="#ea5b22" data-original="#000000" style="" class=""/></g></svg>
