<?xml version="1.0"?>
<svg xmlns="http://www.w3.org/2000/svg" xmlns:xlink="http://www.w3.org/1999/xlink" xmlns:svgjs="http://svgjs.com/svgjs" version="1.1" width="512" height="512" x="0" y="0" viewBox="0 0 24 24" style="enable-background:new 0 0 512 512" xml:space="preserve" class=""><g><g xmlns="http://www.w3.org/2000/svg"><g><path d="m1.5 24c-.276 0-.5-.224-.5-.5v-23c0-.276.224-.5.5-.5s.5.224.5.5v23c0 .276-.224.5-.5.5z" fill="#ea5b22" data-original="#000000" style="" class=""/></g></g><g xmlns="http://www.w3.org/2000/svg"><g><path d="m17.864 15.006c-1.828 0-3.973-.257-6.054-1.11-4.741-1.946-10.046.479-10.099.503-.155.072-.336.061-.48-.031-.144-.093-.231-.252-.231-.423v-12.288c0-.213.134-.402.335-.472.267-.092 6.578-2.26 10.855-.503 4.776 1.96 10.123.509 10.176.494.148-.044.311-.011.437.083.124.095.197.242.197.398v12.288c0 .225-.149.421-.365.481-.137.039-2.119.58-4.771.58zm-10.151-2.875c1.43 0 2.969.221 4.477.839 4.062 1.669 8.524.871 9.81.583v-11.263c-1.62.344-6.035 1.021-10.19-.683-3.403-1.397-8.47-.002-9.81.414v11.179c1.07-.401 3.225-1.069 5.713-1.069zm14.787 1.814h.01z" fill="#ea5b22" data-original="#000000" style="" class=""/></g></g></g></svg>
